<svg width="256" height="256" viewBox="0 0 256 256" fill="none" xmlns="http://www.w3.org/2000/svg">
<rect width="256" height="256" fill="#F7F6F3"/>
<path d="M146.077 204.83C143.005 204.83 141.47 203.415 141.47 200.585C141.47 200.133 141.526 198.095 141.64 194.473C141.754 190.851 141.868 186.323 141.982 180.89C142.095 175.456 142.209 169.627 142.323 163.401C142.437 157.176 142.493 151.176 142.493 145.404H123.722V151.686C123.722 153.497 122.015 154.968 118.602 156.1C115.303 157.232 111.776 157.798 108.022 157.798C105.178 157.798 103.755 156.44 103.755 153.723C103.755 153.044 103.812 151.233 103.926 148.29C104.04 145.234 104.097 141.442 104.097 136.914C104.211 132.386 104.324 127.519 104.438 122.312C104.552 116.992 104.609 111.672 104.609 106.352C104.609 98.4282 104.495 92.5421 104.267 88.6935C104.154 84.8449 103.812 82.2981 103.243 81.0529C103.016 80.3738 103.073 79.8078 103.414 79.355C103.869 78.9022 104.438 78.7891 105.121 79.0154C106.486 79.355 108.42 80.0342 110.923 81.0529C113.539 82.0717 116.213 83.147 118.943 84.2789C121.674 85.4109 123.892 86.4296 125.599 87.3352H142.493V67.2999C142.493 63.5645 142.323 60.6215 141.982 58.4708C141.754 56.2069 141.413 54.6222 140.958 53.7167C140.616 53.0375 140.616 52.4149 140.958 51.849C141.185 51.283 141.754 51 142.664 51C144.143 51 146.418 51.2264 149.49 51.6792C152.562 52.0187 155.634 52.4149 158.705 52.8677C161.891 53.3205 164.166 53.7167 165.532 54.0562C167.011 54.3958 167.636 55.358 167.409 56.9427C167.295 58.301 166.499 59.0934 165.02 59.3197C162.63 59.6593 161.436 60.7347 161.436 62.5458V87.3352H178.501C179.866 87.3352 180.833 86.8258 181.402 85.8071C181.743 85.2411 182.255 84.3921 182.938 83.2602C183.621 82.0151 184.133 81.0529 184.474 80.3738C185.27 79.1286 186.465 78.7891 188.058 79.355C190.333 80.1474 193.234 81.3925 196.761 83.0904C200.288 84.7883 203.075 86.2598 205.123 87.505C206.374 88.2973 207 89.4293 207 90.9008C207 92.2591 206.204 93.2212 204.611 93.7872C204.156 93.9004 203.758 94.0702 203.416 94.2966C203.189 94.4098 202.904 94.5796 202.563 94.806C201.084 95.9379 200.345 98.032 200.345 101.088C200.345 104.031 200.345 107.54 200.345 111.615C200.458 115.577 200.572 119.765 200.686 124.18C200.913 128.481 201.084 132.499 201.198 136.235C201.312 139.97 201.368 143.083 201.368 145.573C201.482 148.064 201.539 149.479 201.539 149.818C201.539 151.629 199.833 153.101 196.42 154.233C193.007 155.365 189.366 155.931 185.498 155.931C182.54 155.931 181.061 154.516 181.061 151.686V145.404H161.436C161.436 150.95 161.493 156.723 161.607 162.722C161.72 168.721 161.834 174.325 161.948 179.531C162.062 184.625 162.175 188.927 162.289 192.436C162.403 195.831 162.46 197.869 162.46 198.548C162.46 199.793 161.607 200.868 159.9 201.774C158.307 202.793 156.259 203.528 153.757 203.981C151.254 204.547 148.694 204.83 146.077 204.83ZM76.2804 205C73.3225 205 71.8435 203.642 71.8435 200.925C71.8435 200.472 71.9004 198.548 72.0141 195.152C72.1279 191.87 72.2417 187.625 72.3554 182.418C72.583 177.098 72.7536 171.381 72.8674 165.269C73.0949 159.043 73.2656 152.874 73.3793 146.762C73.4931 140.649 73.55 135.103 73.55 130.122V119.765C70.2507 124.18 66.8377 128.311 63.3109 132.16C59.7841 135.895 56.2004 139.348 52.5598 142.517C51.8772 142.63 51.2514 142.46 50.6826 142.008C50.2275 141.555 50 140.989 50 140.31C53.6406 135.103 57.1105 129.16 60.4098 122.482C63.7091 115.803 66.667 108.785 69.2837 101.428C72.0141 93.957 74.2895 86.5428 76.1098 79.1852C77.9301 71.7144 79.1815 64.6398 79.8641 57.9614C79.9779 57.0559 80.0348 56.3201 80.0348 55.7541C80.0348 55.1882 80.0348 54.6222 80.0348 54.0562C80.0348 53.7167 80.0348 53.4903 80.0348 53.3771C79.921 52.5847 79.9779 51.9622 80.2054 51.5094C80.5467 51.1698 81.1725 51.0566 82.0826 51.1698C84.2442 51.5094 86.9178 52.1319 90.1033 53.0375C93.2888 53.943 96.4743 54.9052 99.6598 55.9239C102.845 56.8295 105.462 57.6784 107.51 58.4708C108.079 58.584 108.42 59.0368 108.534 59.8291C108.761 60.5083 108.761 61.1308 108.534 61.6968C108.079 62.9419 107.396 63.5645 106.486 63.5645C105.007 63.5645 103.926 63.7909 103.243 64.2437C102.675 64.6964 102.106 65.602 101.537 66.9603C98.6928 74.9971 95.621 82.4112 92.3217 89.2029V198.888C92.3217 200.133 91.4685 201.208 89.762 202.114C88.1692 203.019 86.1214 203.698 83.6185 204.151C81.2293 204.717 78.7833 205 76.2804 205ZM161.436 140.31H181.061V92.4289H161.436V140.31ZM123.722 140.31H142.493V92.4289H123.722V140.31Z" fill="black"/>
</svg>
